<?xml version="1.0" encoding="utf-8"?>
<!-- Generator: Adobe Illustrator 25.2.0, SVG Export Plug-In . SVG Version: 6.00 Build 0)  -->
<svg version="1.1" id="Layer_1" xmlns="http://www.w3.org/2000/svg" xmlns:xlink="http://www.w3.org/1999/xlink" x="0px" y="0px"
	 viewBox="0 0 70 57" style="enable-background:new 0 0 70 57;" xml:space="preserve">
<style type="text/css">
	.st0{fill:#191D63;}
	.st1{fill:#FFFFFF;}
	.st2{fill:#D91A32;}
</style>
<g>
	<g>
		<rect x="11.2" y="6.6" transform="matrix(0.928 -0.3726 0.3726 0.928 -8.2368 14.3796)" class="st0" width="43.8" height="43.8"/>
		<path class="st1" d="M14.9,19.2c-0.4-0.9-0.9-2-1.2-2.8l0,0c0.1,0.9,0.1,1.8,0.2,2.8l0.1,3.6l-0.6,0.3L11,20.5
			c-0.7-0.8-1.3-1.5-1.8-2.2l0,0c0.3,0.8,0.7,1.9,1,2.9l1,2.9l-0.8,0.3l-2.2-6.7l1.1-0.4l2.4,2.7c0.6,0.7,1.1,1.3,1.5,1.9l0,0
			c-0.1-0.7-0.1-1.5-0.2-2.5l-0.1-3.6l1.1-0.4l3,6.4L16.2,22L14.9,19.2z"/>
		<path class="st1" d="M21.4,19.8c-0.2,0.2-0.6,0.6-1.2,0.8c-1.4,0.6-2.7,0-3.3-1.5c-0.6-1.4,0-2.9,1.5-3.5c0.5-0.2,1-0.3,1.3-0.2
			l0.1,0.7c-0.2,0-0.6,0-1.1,0.2c-1.1,0.4-1.3,1.5-0.9,2.4c0.4,1.1,1.4,1.5,2.3,1.1c0.5-0.2,0.8-0.4,1-0.6L21.4,19.8z"/>
		<path class="st1" d="M22.5,17.1l0.1,2.3l-0.9,0.4l-0.4-7.4l1-0.4l4.9,5.6L26.3,18l-1.5-1.8L22.5,17.1z M24.4,15.6L23,14
			c-0.3-0.4-0.6-0.7-0.8-1.1l0,0c0.1,0.4,0.1,0.9,0.1,1.3l0.1,2.2L24.4,15.6z"/>
		<path class="st1" d="M26.6,14.1c-0.2-0.6-0.4-1-0.6-1.5l0.7-0.3l0.4,0.9l0,0c0-0.7,0.3-1.3,0.9-1.6c0.1,0,0.2-0.1,0.2-0.1l0.3,0.8
			c-0.1,0-0.2,0.1-0.3,0.1c-0.6,0.2-0.8,0.9-0.7,1.5c0,0.1,0.1,0.3,0.1,0.4l1,2.5l-0.9,0.3L26.6,14.1z"/>
		<path class="st1" d="M29.6,9.9L30,11l1.2-0.5l0.3,0.7l-1.2,0.5l1,2.5c0.2,0.6,0.5,0.8,1,0.7c0.2-0.1,0.4-0.2,0.5-0.3l0.3,0.6
			c-0.1,0.1-0.4,0.3-0.7,0.4c-0.4,0.2-0.8,0.2-1.1,0c-0.3-0.2-0.6-0.5-0.8-1.1l-1-2.6l-0.7,0.3l-0.3-0.7l0.7-0.3l-0.4-0.9L29.6,9.9z
			"/>
		<path class="st1" d="M31.1,8L32,7.7l1.2,2.9l0,0c0-0.3,0.2-0.6,0.4-0.9c0.2-0.2,0.5-0.5,0.8-0.6c0.6-0.3,1.8-0.3,2.4,1.3l1.1,2.8
			L37,13.7L36,11c-0.3-0.8-0.8-1.3-1.6-1c-0.6,0.2-0.8,0.8-0.8,1.3c0,0.1,0,0.3,0.1,0.4l1.1,2.8l-0.9,0.3L31.1,8z"/>
		<path class="st1" d="M42.5,10c0.2,0.5,0.4,0.9,0.6,1.3l-0.8,0.3l-0.4-0.7l0,0c-0.1,0.5-0.4,1.2-1.2,1.5c-0.7,0.3-1.8,0.2-2.4-1.4
			l-1.1-2.7L38,7.8l1,2.6c0.4,0.9,0.9,1.4,1.7,1.1c0.6-0.2,0.8-0.8,0.8-1.2c0-0.1,0-0.3-0.1-0.5l-1.2-2.9l0.9-0.3L42.5,10z"/>
		<path class="st1" d="M42.9,7.6c-0.2-0.6-0.4-1-0.6-1.5L43,5.8l0.4,0.9l0,0c0-0.7,0.3-1.3,0.9-1.6c0.1,0,0.2-0.1,0.2-0.1l0.3,0.8
			c-0.1,0-0.2,0.1-0.3,0.1c-0.6,0.2-0.9,0.9-0.7,1.5c0,0.1,0.1,0.3,0.1,0.4l1,2.5l-0.9,0.3L42.9,7.6z"/>
		<path class="st1" d="M18.9,30.6c-0.3,0.3-1,0.8-1.9,1.2c-1,0.4-1.9,0.5-2.8,0.1c-0.8-0.3-1.5-1.1-1.9-2.1c-0.8-2,0-3.9,2.2-4.8
			c0.8-0.3,1.4-0.4,1.8-0.4l0.1,0.8c-0.4,0-0.9,0-1.6,0.3c-1.6,0.6-2.2,2-1.6,3.7c0.7,1.7,2.1,2.2,3.6,1.6c0.6-0.2,0.9-0.5,1.1-0.6
			l-0.8-2L15.7,29l-0.3-0.7l2.2-0.9L18.9,30.6z"/>
		<rect x="18.6" y="23.2" transform="matrix(0.9279 -0.3728 0.3728 0.9279 -8.6531 9.0478)" class="st1" width="0.9" height="7.4"/>
		<path class="st1" d="M21.7,27.3c0.5,1.1,1.4,1.3,2.3,1c0.6-0.2,0.9-0.5,1.2-0.8l0.4,0.5c-0.2,0.3-0.7,0.6-1.5,0.9
			c-1.4,0.6-2.7,0-3.3-1.5c-0.6-1.4-0.2-2.9,1.2-3.4c1.5-0.6,2.5,0.6,2.8,1.4c0.1,0.2,0.1,0.3,0.1,0.4L21.7,27.3z M24,25.7
			c-0.2-0.5-0.8-1.3-1.7-0.9c-0.9,0.4-0.9,1.3-0.8,1.9L24,25.7z"/>
		<path class="st1" d="M25.4,24.4c-0.2-0.5-0.4-0.9-0.5-1.3l0.8-0.3l0.4,0.8l0,0c0.1-0.5,0.4-1.2,1.2-1.5c0.7-0.3,1.8-0.3,2.5,1.3
			l1.1,2.8l-0.9,0.3l-1.1-2.7c-0.3-0.8-0.8-1.3-1.6-1c-0.6,0.2-0.8,0.8-0.8,1.3c0,0.1,0,0.3,0.1,0.4l1.1,2.8l-0.9,0.3L25.4,24.4z"/>
	</g>
	<rect y="34.4" class="st2" width="70" height="13.4"/>
</g>
</svg>
