<?xml version="1.0" standalone="no"?>
<!DOCTYPE svg PUBLIC "-//W3C//DTD SVG 20010904//EN"
 "http://www.w3.org/TR/2001/REC-SVG-20010904/DTD/svg10.dtd">
<svg version="1.0" xmlns="http://www.w3.org/2000/svg"
 width="1184.000000pt" height="1184.000000pt" viewBox="0 0 1184.000000 1184.000000"
 preserveAspectRatio="xMidYMid meet">
<metadata>
Created by potrace 1.11, written by Peter Selinger 2001-2013
</metadata>
<g transform="translate(0.000000,1184.000000) scale(0.100000,-0.100000)"
fill="#000000" stroke="none">
<path d="M7230 10640 c-157 -66 -293 -124 -302 -130 -10 -5 -25 -10 -33 -10
-8 0 -15 -4 -15 -8 0 -5 -6 -9 -12 -9 -14 0 -265 -105 -310 -129 -16 -8 -28
-12 -28 -9 0 3 -10 -1 -22 -9 -12 -9 -30 -16 -40 -16 -10 0 -18 -5 -18 -12 0
-6 -3 -8 -6 -5 -4 4 -19 0 -33 -7 -22 -12 -75 -35 -227 -97 -16 -7 -32 -12
-36 -11 -5 1 -8 -3 -8 -8 0 -6 -6 -10 -13 -10 -11 0 -106 -38 -202 -80 -11 -5
-42 -19 -70 -31 -27 -12 -56 -22 -62 -22 -7 0 -13 -4 -13 -9 0 -4 -4 -8 -10
-8 -9 0 -279 -110 -319 -130 -9 -4 -29 -13 -46 -20 -60 -24 -91 -37 -130 -55
-22 -10 -44 -18 -49 -16 -5 1 -12 -2 -15 -6 -3 -5 -49 -26 -101 -47 -150 -62
-222 -92 -270 -113 -45 -20 -81 -35 -90 -38 -3 -1 -23 -9 -45 -19 -22 -10 -62
-27 -90 -38 -27 -11 -73 -30 -103 -44 -29 -13 -55 -24 -58 -24 -3 0 -20 -6
-37 -14 -113 -51 -149 -66 -160 -66 -7 0 -18 -5 -24 -11 -6 -6 -17 -12 -24
-13 -8 -2 -32 -11 -54 -21 -50 -22 -88 -38 -95 -40 -3 0 -27 -11 -54 -23 -27
-12 -50 -22 -53 -22 -2 0 -23 -9 -46 -19 -23 -10 -141 -61 -262 -111 -121 -51
-283 -120 -360 -153 -77 -33 -146 -60 -152 -60 -7 0 -13 -4 -13 -9 0 -4 -6 -8
-14 -8 -13 0 -66 -21 -162 -65 -27 -13 -74 -33 -104 -45 -29 -12 -73 -30 -96
-41 -24 -10 -45 -19 -49 -19 -3 0 -24 -9 -48 -19 -23 -11 -145 -63 -272 -116
-276 -116 -337 -142 -392 -166 -24 -11 -45 -19 -49 -19 -3 0 -29 -11 -57 -24
-29 -13 -110 -48 -182 -77 -71 -29 -132 -56 -135 -59 -3 -3 -10 -6 -15 -7 -6
-1 -107 -43 -225 -93 -118 -50 -219 -93 -225 -94 -5 -2 -23 -9 -40 -16 -16 -7
-43 -18 -60 -25 -16 -7 -52 -23 -80 -35 -27 -12 -54 -23 -60 -24 -5 -1 -42
-17 -82 -36 l-72 -35 21 -45 c12 -25 27 -61 35 -80 8 -19 22 -48 31 -65 9 -16
16 -32 15 -35 -1 -7 21 -62 61 -153 14 -32 26 -60 26 -62 0 -3 9 -24 19 -48
11 -23 32 -71 46 -107 15 -36 33 -78 40 -95 8 -16 26 -59 40 -95 15 -36 33
-80 41 -97 69 -160 106 -248 108 -258 4 -15 45 -108 57 -129 6 -10 12 -26 14
-35 2 -9 16 -43 31 -76 15 -33 28 -62 28 -65 1 -3 10 -26 20 -50 11 -25 28
-65 38 -90 11 -25 25 -58 33 -75 7 -16 11 -33 9 -37 -3 -4 0 -8 5 -8 6 0 11
-5 11 -10 0 -6 9 -29 19 -53 18 -40 32 -76 33 -87 0 -3 7 -14 14 -25 8 -11 14
-27 14 -35 0 -9 5 -21 12 -28 6 -6 13 -18 14 -25 1 -7 13 -39 28 -70 14 -32
26 -59 26 -61 0 -2 8 -21 17 -42 9 -22 16 -42 15 -46 -1 -5 2 -8 8 -8 6 0 9
-3 8 -7 -2 -10 -6 0 109 -272 52 -123 99 -235 104 -248 5 -12 17 -42 28 -66
31 -70 61 -139 61 -142 0 -1 -435 -2 -967 -2 l-968 0 -3 -1184 -2 -1184 1466
0 c968 0 1468 -3 1473 -10 5 -5 29 -62 56 -125 26 -63 53 -128 60 -145 52
-118 88 -209 88 -221 0 -8 4 -14 7 -14 4 0 25 -44 46 -97 21 -54 42 -99 46
-101 4 -2 8 -10 8 -17 0 -11 79 -205 110 -270 5 -11 18 -43 29 -71 11 -28 28
-71 39 -95 18 -41 55 -128 89 -209 8 -19 19 -43 25 -54 5 -10 11 -28 14 -39 5
-26 23 -37 43 -27 9 4 27 12 41 18 14 6 51 22 83 36 32 14 60 26 63 26 3 0 38
14 77 31 40 17 90 39 112 48 22 10 60 26 85 37 24 10 47 19 50 19 3 1 15 6 26
13 12 6 24 8 28 5 3 -3 6 -1 6 5 0 7 5 12 10 12 9 0 175 68 285 116 22 10 43
19 48 20 4 1 10 3 15 4 4 1 10 2 15 1 4 0 7 3 7 9 0 5 7 10 15 10 8 0 23 4 33
10 34 19 117 53 130 53 6 0 12 4 12 9 0 4 7 8 15 8 8 0 23 4 33 10 24 13 131
60 138 60 4 0 48 18 119 50 69 31 283 119 295 122 8 2 18 7 21 11 3 5 12 10
20 11 16 3 52 18 113 46 25 11 47 20 50 20 3 0 29 11 58 24 30 14 78 34 107
46 30 11 75 30 100 42 25 11 50 21 56 22 5 1 26 9 45 18 19 9 85 37 145 63 61
25 119 50 130 54 37 17 60 24 68 23 4 -1 7 2 7 8 0 5 9 10 20 10 11 0 20 5 20
12 0 6 3 9 6 6 6 -6 70 19 223 87 47 20 90 38 97 39 6 1 18 7 25 13 8 6 16 11
19 11 21 0 60 16 60 25 0 6 3 8 6 5 3 -4 47 12 97 34 51 21 101 43 112 48 88
38 121 52 130 54 6 2 24 9 40 16 25 11 456 13 2375 14 l2345 1 0 1184 0 1184
-932 0 c-698 -1 -935 2 -942 11 -6 6 -24 48 -42 91 -17 44 -34 85 -38 90 -3 6
-6 12 -6 15 -1 3 -11 27 -23 54 -12 27 -22 52 -22 57 0 5 -9 24 -20 44 -11 19
-18 35 -15 35 2 0 -7 22 -20 49 -14 27 -25 52 -25 56 0 3 -11 31 -25 61 -14
30 -25 56 -25 58 0 2 -10 25 -22 52 -12 27 -23 54 -24 59 -1 6 -31 78 -66 160
-67 156 -80 187 -83 195 -3 9 -26 64 -41 97 -29 67 -43 100 -68 163 -15 36
-31 74 -36 85 -30 62 -110 261 -110 271 0 7 -3 14 -7 16 -5 2 -23 41 -42 88
-19 47 -44 108 -57 135 -12 28 -45 106 -74 175 -28 69 -58 139 -65 155 -43 98
-157 372 -159 380 -1 6 -7 19 -13 31 -7 11 -26 56 -43 100 -18 43 -43 103 -56
132 -13 29 -24 55 -24 57 0 3 -8 24 -19 48 -72 165 -89 206 -84 211 4 3 1 6
-5 6 -7 0 -12 6 -12 14 0 11 -27 78 -70 171 -5 11 -26 61 -46 110 -20 50 -49
118 -65 153 -16 35 -29 65 -29 68 0 7 -89 217 -100 236 -6 10 -10 25 -10 33 0
8 -5 15 -10 15 -6 0 -10 6 -9 13 2 11 -6 33 -46 122 -8 17 -26 59 -40 95 -38
92 -55 132 -66 152 -5 10 -9 25 -9 33 0 8 -4 15 -9 15 -5 0 -12 12 -17 28 -11
39 -13 45 -47 122 -10 25 -26 61 -34 80 -8 19 -19 44 -24 55 -14 32 -27 70
-25 75 0 3 -7 16 -17 30 -9 13 -17 32 -17 42 0 9 -6 23 -12 30 -7 7 -14 20
-16 28 -2 8 -14 39 -27 68 -14 29 -25 55 -25 58 0 6 -6 20 -43 104 -30 67 -40
95 -39 103 1 4 -3 7 -10 7 -6 0 -9 3 -6 6 4 3 -7 35 -23 72 -17 37 -34 76 -38
87 -5 11 -16 36 -24 55 -8 19 -27 64 -42 100 -37 91 -49 120 -66 157 l-14 32
-285 -119z"/>
</g>
</svg>
